<?xml version="1.0" encoding="utf-8"?>
<!-- Generator: Adobe Illustrator 23.0.1, SVG Export Plug-In . SVG Version: 6.00 Build 0)  -->
<svg version="1.1" id="图层_1" xmlns="http://www.w3.org/2000/svg" xmlns:xlink="http://www.w3.org/1999/xlink" x="0px" y="0px"
	 viewBox="0 0 82 82" style="enable-background:new 0 0 82 82;" xml:space="preserve">
<style type="text/css">
	.st0{opacity:0.2;fill:none;stroke:#000000;stroke-width:0.5208;enable-background:new    ;}
	.st1{opacity:0.7;enable-background:new    ;}
	.st2{fill-rule:evenodd;clip-rule:evenodd;}
</style>
<circle id="椭圆形" class="st0" cx="41" cy="41" r="40.7"/>
<g id="华为logo" transform="translate(14.000000, 21.000000)" class="st1">
	<path id="形状结合" class="st2" d="M21.6,34.6c0,0,0.2,0,0.2,0.2c0,0,0,0.1-0.1,0.2l0,0c-1.7,1.2-6.7,4.7-8.9,5.2
		c-3.2,0.8-6.3-1.7-8.2-5l0,0L21.6,34.6z M32.5,34.5L49.1,35c-3.6,6.2-7.8,5-8,4.9l0,0c-2.3-0.6-7.1-4-8.7-5.1l0,0
		c-0.1-0.1-0.1-0.2-0.1-0.2C32.3,34.5,32.5,34.5,32.5,34.5L32.5,34.5L32.5,34.5z M0.5,20.5c0,0,5.5,2.9,11.4,6.3l0.6,0.4
		c0.1,0.1,0.2,0.1,0.3,0.2l0.6,0.4l0,0l0.6,0.4l0,0l0.6,0.4c2.6,1.5,5.2,3.1,7.2,4.5l0,0c0,0,0.1,0.1,0.1,0.2c0,0-0.1,0.1-0.2,0.1
		c-1.1,0-3.4,0-5.7,0l-0.6,0c-0.8,0-1.6,0-2.4,0l-1.6,0c-1.3,0-2.1,0-2.2,0c0,0-1.6,0-3.2-0.7c0,0-3.4-1.1-5.2-4.9c0,0,0,0,0,0
		l0-0.1C0.6,26.9-0.7,24,0.5,20.5z M53.5,20.5c1.3,3.8-0.4,7-0.4,7c-1.8,4-5.3,5.1-5.3,5.1c-1.6,0.6-2.9,0.7-2.9,0.7
		c-0.1,0-2.5,0-5.2,0l-0.9,0c-0.1,0-0.2,0-0.3,0l-2.1,0c-0.1,0-0.2,0-0.3,0l-1.1,0c-0.1,0-0.2,0-0.3,0l-0.5,0c-0.1,0-0.2,0-0.2,0
		l-0.7,0c-0.2,0-0.4,0-0.6,0l-0.3,0l0,0l-0.1,0c-0.1,0-0.2-0.1-0.2-0.1c0-0.2,0.1-0.2,0.1-0.2l0,0c2.3-1.5,5.2-3.3,8.2-5l0.6-0.4
		C47.3,23.8,53.5,20.5,53.5,20.5z M45.7,6.8c0,0,4.7,4.3,4.4,8.9c-0.1,3.3-2.7,5.4-2.7,5.4c-4.1,4-14,9-16.4,10.1l0,0
		c-0.1,0.1-0.2,0-0.2,0c-0.1-0.1,0-0.3,0-0.3l0,0C37.1,17.2,45.7,6.8,45.7,6.8z M7.7,6.6c0,0,9,10.4,15.5,24.1l0,0
		c0.1,0.1,0,0.2,0,0.2C23.1,31,23,31,23,31C20.6,29.8,10.3,24.8,6,20.9c0,0-2.6-2-2.8-5.3C2.9,11.1,7.7,6.6,7.7,6.6z M31-0.3
		c1.2,0.2,2.4,0.4,2.6,0.5l0,0c4.4,1.1,5.5,5.1,5.5,5.1c0.8,2.1,0,5.2,0,5.2c-1.5,6.4-8.6,17-10.2,19.3l0,0c0,0-0.1,0.2-0.2,0.1
		c0,0-0.1,0-0.1-0.2l0,0C26,6,31-0.3,31-0.3z M23.1-0.3c0,0,0.2,0.2,0.4,0.8l0.1,0.2c1.2,2.5,3.9,10.3,2,29l0,0c0,0,0,0.2-0.2,0.2
		c0,0-0.1,0-0.2-0.1C23.7,27.6,16.4,17,15,10.5c0,0-0.8-2.7,0-5.2c0,0,1-4,5.4-5.1C20.4,0.2,22.3-0.2,23.1-0.3z"/>
</g>
</svg>
